<svg width="89" height="89" viewBox="0 0 89 89" fill="none" xmlns="http://www.w3.org/2000/svg">
<path fill-rule="evenodd" clip-rule="evenodd" d="M2.86104 27.8204L8.33442 17.9658C9.22059 16.3703 11.1913 15.807 12.7869 16.6932L17.5734 19.3517C20.1174 16.6506 22.9535 14.4188 26.0607 12.5832L24.5586 7.32791C24.0578 5.57614 25.0743 3.746 26.8261 3.24528L37.6756 0.183584C39.4274 -0.317132 41.2575 0.699356 41.7583 2.45113L43.2604 7.70646C46.8214 7.59658 50.4815 7.97156 53.9957 8.94093L56.6542 4.1544C57.5404 2.55889 59.5841 1.97472 61.1327 2.83482L71.0343 8.33427C72.6298 9.22043 73.167 11.2381 72.2809 12.8336L69.6224 17.6202C72.3494 20.1173 74.5552 23.0002 76.3439 26.0814L81.6461 24.6053C83.3979 24.1046 85.228 25.1211 85.7287 26.8728L88.8165 37.6755C89.3172 39.4272 88.3007 41.2574 86.5489 41.7581L81.2936 43.2602C81.3774 46.8682 81.0285 50.4814 80.0331 54.0425L84.8196 56.701C86.4151 57.5871 87.0253 59.5839 86.1392 61.1795L80.6658 71.0341C79.7796 72.6296 77.7359 73.2138 76.1404 72.3276L71.3538 69.6691C68.8828 72.3493 65.9738 74.6019 62.8926 76.3906L64.3948 81.6459C64.8955 83.3977 63.879 85.2279 62.1272 85.7286L51.2986 88.8632C49.5468 89.364 47.7166 88.3475 47.2159 86.5957L45.6668 81.3143C42.1058 81.4242 38.5187 81.0283 34.9315 80.0798L32.273 84.8664C31.3869 86.4619 29.4161 87.0252 27.8206 86.139L17.919 80.6396C16.3704 79.7795 15.7602 77.7827 16.6464 76.1871L19.3049 71.4006C16.6508 68.8826 14.3721 66.0205 12.5834 62.9394L7.32807 64.4415C5.5763 64.9422 3.74615 63.9258 3.24543 62.174L0.136838 51.2984C-0.363877 49.5466 0.652607 47.7165 2.40438 47.2158L7.65968 45.7136C7.5498 42.1526 7.97174 38.5186 8.89419 34.9783L4.10764 32.3198C2.51213 31.4336 1.97487 29.416 2.86104 27.8204ZM25.0255 33.6835C19.0569 44.4298 22.8905 57.9799 33.6837 63.9746C44.4299 69.9432 58.0062 66.0626 63.9748 55.3164C69.9434 44.5701 66.0628 30.9939 55.3166 25.0253C44.5234 19.0306 30.9941 22.9372 25.0255 33.6835Z" fill="#111173"/>
</svg>
